HIERARCHY
ROOT Hips
{
    OFFSET 0.000000 0.000000 0.000000
    CHANNELS 6 Xposition Yposition Zposition Zrotation Xrotation Yrotation
    JOINT Spine
    {
        OFFSET -0.000000 14.517291 0.000000
        CHANNELS 3 Zrotation Xrotation Yrotation
        JOINT Spine1
        {
            OFFSET -0.000000 37.558300 0.000000
            CHANNELS 3 Zrotation Xrotation Yrotation
            JOINT Neck
            {
                OFFSET -0.000000 37.404057 3.400369
                CHANNELS 3 Zrotation Xrotation Yrotation
                JOINT Head
                {
                    OFFSET -0.000000 24.785618 -3.540803
                    CHANNELS 3 Zrotation Xrotation Yrotation
                    End Site
                    {
                        OFFSET -0.000000 35.408028 0.000000
                    }
                }
            }
            JOINT LeftShoulder
            {
                OFFSET 6.992933 33.973492 -0.192664
                CHANNELS 3 Zrotation Xrotation Yrotation
                JOINT LeftArm
                {
                    OFFSET 21.527611 0.000000 0.000000
                    CHANNELS 3 Zrotation Xrotation Yrotation
                    JOINT LeftForeArm
                    {
                        OFFSET 56.353916 0.000000 0.000000
                        CHANNELS 3 Zrotation Xrotation Yrotation
                        JOINT LeftHand
                        {
                            OFFSET 47.774071 0.000000 0.000000
                            CHANNELS 3 Zrotation Xrotation Yrotation
                            End Site
                            {
                                OFFSET 26.556021 0.000000 0.000000
                            }
                        }
                    }
                }
            }
            JOINT RightShoulder
            {
                OFFSET -7.065357 33.973492 -0.192664
                CHANNELS 3 Zrotation Xrotation Yrotation
                JOINT RightArm
                {
                    OFFSET -21.527611 0.000000 0.000000
                    CHANNELS 3 Zrotation Xrotation Yrotation
                    JOINT RightForeArm
                    {
                        OFFSET -56.353916 0.000000 0.000000
                        CHANNELS 3 Zrotation Xrotation Yrotation
                        JOINT RightHand
                        {
                            OFFSET -47.774071 0.000000 0.000000
                            CHANNELS 3 Zrotation Xrotation Yrotation
                            End Site
                            {
                                OFFSET -26.556021 0.000000 0.000000
                            }
                        }
                    }
                }
            }
        }
    }
    JOINT LeftUpLeg
    {
        OFFSET 17.704014 0.000000 0.000000
        CHANNELS 3 Zrotation Xrotation Yrotation
        JOINT LeftLeg
        {
            OFFSET -0.000000 -81.181816 0.000000
            CHANNELS 3 Zrotation Xrotation Yrotation
            JOINT LeftFoot
            {
                OFFSET -0.000000 -62.821102 0.000000
                CHANNELS 3 Zrotation Xrotation Yrotation
                JOINT LeftToeBase
                {
                    OFFSET -0.000000 -11.507608 26.556021
                    CHANNELS 3 Zrotation Xrotation Yrotation
                    End Site
                    {
                        OFFSET -0.000000 0.000000 7.081605
                    }
                }
            }
        }
    }
    JOINT RightUpLeg
    {
        OFFSET -17.704014 0.000000 0.000000
        CHANNELS 3 Zrotation Xrotation Yrotation
        JOINT RightLeg
        {
            OFFSET -0.000000 -81.181816 0.000000
            CHANNELS 3 Zrotation Xrotation Yrotation
            JOINT RightFoot
            {
                OFFSET -0.000000 -62.821102 0.000000
                CHANNELS 3 Zrotation Xrotation Yrotation
                JOINT RightToeBase
                {
                    OFFSET -0.000000 -11.507608 26.556021
                    CHANNELS 3 Zrotation Xrotation Yrotation
                    End Site
                    {
                        OFFSET -0.000000 0.000000 7.081605
                    }
                }
            }
        }
    }
}
MOTION
Frames:    12
Frame Time:    0.008333
-1.648436    155.268036    -29.107559    0.240775    -3.631409    -26.938383    2.069068    -0.792927    3.466186    0.107238    1.240842    1.149269    8.231573    1.372383    10.794035    -3.185419    0.089090    9.661571    -1.616023    4.878748    -6.140944    -42.201756    2.796690    -15.794153    59.599682    -49.510063    -11.718705    -2.061039    -44.778404    -12.223389    -7.034122    7.107230    -2.695477    38.592915    12.709322    73.354874    3.645814    -11.220968    99.734016    8.308521    -14.489951    13.354999    15.301352    -19.707912    -0.879029    -15.088862    22.688211    7.092047    -5.567769    0.339503    22.281652    0.000000    0.000000    0.000000    -11.438082    7.861231    -4.878501    7.875841    26.927517    1.113128    1.716260    -27.012964    -20.561584    0.000000    0.000000    0.000000    
-1.627737    155.272583    -29.112322    0.247228    -3.627729    -26.944056    2.205466    -0.039163    3.827258    -0.795589    -0.143671    1.274356    9.845349    1.773652    10.655447    -4.002475    0.405781    9.227318    -0.795057    5.549431    -6.679977    -42.683308    1.250951    -15.897881    57.837036    -49.352993    -13.752152    -2.124084    -43.953510    -12.376994    -5.470008    7.332905    -3.004261    38.247459    12.688905    72.488251    3.960377    -10.627134    100.168030    8.155959    -14.323584    13.291552    15.326035    -19.719902    -0.985921    -15.217683    22.665588    7.188365    -5.525866    0.339346    22.351898    0.000000    0.000000    0.000000    -11.451069    7.848698    -4.851406    7.885800    26.924492    1.093118    1.737724    -27.009579    -20.555079    0.000000    0.000000    0.000000    
-1.608244    155.272293    -29.113377    0.254384    -3.630819    -26.951981    2.077046    -0.767288    3.476248    0.087949    1.215776    1.152973    8.267109    1.370074    10.793060    -3.206713    0.089014    9.652525    -1.602539    4.874640    -6.150064    -42.207222    2.794328    -15.797462    59.605007    -49.489960    -11.709312    -2.039770    -44.761517    -12.218589    -7.015691    7.086817    -2.703714    38.573689    12.721907    73.346764    3.650859    -11.208556    99.773346    8.331011    -14.482715    13.371034    15.312258    -19.717140    -0.978617    -15.215158    22.655069    7.204897    -5.536687    0.336530    22.342314    0.000000    0.000000    0.000000    -11.464652    7.844808    -4.848438    7.882892    26.917772    1.096123    1.718094    -27.003925    -20.557852    0.000000    0.000000    0.000000    
-1.588652    155.275253    -29.113739    0.256979    -3.636109    -26.955887    2.213810    -0.011769    3.823981    -0.809631    -0.160472    1.273301    9.854897    1.757930    10.653664    -3.996556    0.429278    9.224416    -0.797112    5.534081    -6.689497    -42.677498    1.253106    -15.871930    57.816566    -49.366707    -13.763823    -2.060446    -43.971748    -12.338105    -5.462436    7.315244    -2.986238    38.246277    12.679389    72.469856    3.971724    -10.591049    100.197418    8.179025    -14.299956    13.302127    15.301619    -19.708548    -0.987093    -15.223538    22.639040    7.217711    -5.526177    0.342221    22.356405    0.000000    0.000000    0.000000    -11.476994    7.852270    -4.843509    7.881718    26.901178    1.122822    1.715795    -27.006409    -20.584667    0.000000    0.000000    0.000000    
-1.572602    155.277649    -29.111725    0.260800    -3.644224    -26.959688    2.088816    -0.733565    3.466270    0.070477    1.187403    1.150044    8.273776    1.395936    10.797187    -3.202326    0.073155    9.657993    -1.604528    4.877745    -6.161833    -42.202782    2.801515    -15.776587    59.607124    -49.521503    -11.693569    -1.990587    -44.806736    -12.165230    -7.000156    7.094942    -2.679571    38.562263    12.700815    73.338570    3.651459    -11.172552    99.785942    8.351855    -14.446905    13.362035    15.287275    -19.697067    -0.973958    -15.209248    22.623260    7.215535    -5.508018    0.363841    22.326626    0.000000    0.000000    0.000000    -11.492504    7.870796    -4.840328    7.884500    26.869173    1.142975    1.704071    -27.003338    -20.593748    0.000000    0.000000    0.000000    
-1.555354    155.281784    -29.110289    0.261188    -3.643085    -26.956825    2.220866    0.002542    3.816505    -0.798967    -0.163394    1.270896    9.842283    1.765735    10.648949    -3.995983    0.418244    9.221567    -0.815969    5.537721    -6.696500    -42.665150    1.222762    -15.882380    57.772026    -49.377918    -13.770282    -2.060511    -43.986897    -12.322356    -5.477718    7.317151    -2.986420    38.218910    12.685011    72.485657    3.960392    -10.604841    100.207336    8.191408    -14.299891    13.302645    15.278361    -19.695435    -0.972252    -15.203009    22.616907    7.199870    -5.502465    0.358042    22.342279    0.000000    0.000000    0.000000    -11.500437    7.881383    -4.852487    7.886555    26.841877    1.178903    1.688336    -26.996500    -20.612371    0.000000    0.000000    0.000000    
-1.537970    155.288025    -29.109304    0.265576    -3.638115    -26.961393    2.096662    -0.742016    3.470585    0.082891    1.199510    1.151305    8.257623    1.386377    10.774673    -3.181440    0.075536    9.639046    -1.610999    4.870937    -6.205526    -42.220039    2.768370    -15.752166    59.571701    -49.516811    -11.720840    -2.041486    -44.789558    -12.199430    -7.003066    7.087977    -2.691509    38.544685    12.698779    73.340271    3.664801    -11.171279    99.802544    8.321799    -14.466389    13.354717    15.235351    -19.687456    -0.859615    -15.066837    22.620920    7.104783    -5.552293    0.360864    22.280796    0.000000    0.000000    0.000000    -11.506495    7.882814    -4.845140    7.891618    26.812622    1.150411    1.685478    -26.981735    -20.603559    0.000000    0.000000    0.000000    
-1.525117    155.294083    -29.110687    0.263587    -3.628005    -26.957705    2.234908    -0.004422    3.813140    -0.794647    -0.165637    1.269700    9.828760    1.766464    10.634993    -3.967191    0.413466    9.212702    -0.809601    5.538774    -6.721147    -42.694557    1.233233    -15.862565    57.792458    -49.379543    -13.762905    -2.082738    -43.987495    -12.335721    -5.480149    7.323895    -2.995677    38.214573    12.675882    72.494865    3.985896    -10.589436    100.218521    8.173594    -14.318048    13.294259    15.272910    -19.698923    -0.952988    -15.189426    22.588591    7.203099    -5.512565    0.377597    22.317846    0.000000    0.000000    0.000000    -11.496429    7.879055    -4.850290    7.877067    26.795630    1.150171    1.705889    -26.968506    -20.609322    0.000000    0.000000    0.000000    
-1.508358    155.302109    -29.110685    0.268358    -3.614349    -26.951485    2.120383    -0.768212    3.462151    0.070170    1.211526    1.148397    8.293831    1.384365    10.768307    -3.209631    0.082108    9.623534    -1.590534    4.881671    -6.214664    -42.249710    2.783943    -15.771824    59.618393    -49.490540    -11.685075    -2.092292    -44.766800    -12.229618    -6.999218    7.084272    -2.696440    38.544617    12.690193    73.332535    3.685949    -11.160646    99.809792    8.314915    -14.481358    13.358051    15.232286    -19.705093    -0.848333    -15.060570    22.595661    7.094059    -5.550718    0.383101    22.289677    0.000000    0.000000    0.000000    -11.493686    7.866084    -4.851140    7.865371    26.786840    1.156980    1.716894    -26.952257    -20.603733    0.000000    0.000000    0.000000    
-1.492766    155.308426    -29.113228    0.268832    -3.601360    -26.950157    2.260439    -0.020548    3.806743    -0.801488    -0.175782    1.267391    9.828569    1.765500    10.621131    -3.958300    0.423635    9.199784    -0.813956    5.552261    -6.739182    -42.701286    1.471662    -15.843309    58.129360    -49.388458    -13.469901    -2.071037    -44.079536    -12.307013    -5.485506    7.322003    -2.996090    38.212147    12.677588    72.480797    3.994637    -10.584034    100.221977    8.173488    -14.323196    13.292919    15.233577    -19.715971    -0.840549    -15.060137    22.591755    7.080796    -5.528266    0.387131    22.298050    0.000000    0.000000    0.000000    -11.488745    7.847429    -4.842193    7.867809    26.788471    1.139861    1.740291    -26.939783    -20.607964    0.000000    0.000000    0.000000    
-1.478067    155.316025    -29.115629    0.266895    -3.595180    -26.947533    2.148904    -0.763964    3.462456    0.047907    1.186733    1.148723    8.321961    1.365235    10.751280    -3.205838    0.120757    9.602118    -1.579651    4.902567    -6.242648    -42.258381    2.936255    -15.751337    59.803738    -49.518898    -11.544062    -2.009626    -44.845192    -12.173719    -6.976690    7.075078    -2.699105    38.533775    12.697353    73.301079    3.686187    -11.164682    99.815445    8.327970    -14.485260    13.347659    15.299888    -19.750185    -0.931988    -15.182304    22.564440    7.153861    -5.581755    0.492857    22.285868    0.000000    0.000000    0.000000    -11.483486    7.835864    -4.846838    7.852188    26.796574    1.185279    1.736066    -26.926037    -20.645550    0.000000    0.000000    0.000000    
-1.461397    155.320602    -29.117437    0.270491    -3.592600    -26.946127    2.285059    -0.003782    3.799047    -0.829933    -0.200181    1.264706    9.856760    1.743968    10.615107    -3.956517    0.455866    9.189179    -0.795081    5.572192    -6.740894    -42.717575    1.452828    -15.855491    58.079353    -49.386425    -13.541859    -2.068171    -44.053799    -12.311169    -5.469673    7.309252    -2.995296    38.205276    12.681830    72.458351    3.990899    -10.591047    100.228569    8.157259    -14.329559    13.276315    15.293434    -19.755140    -0.937211    -15.187284    22.554741    7.165375    -5.581012    0.500931    22.287075    0.000000    0.000000    0.000000    -11.488610    7.823175    -4.837781    7.851701    26.802975    1.173697    1.755509    -26.917324    -20.643091    0.000000    0.000000    0.000000    
